<svg xmlns="http://www.w3.org/2000/svg" xmlns:xlink="http://www.w3.org/1999/xlink" viewBox="0 0 512 512" style="enable-background:new 0 0 512 512" xml:space="preserve"><style>.st0{display:none}.st1{display:inline;fill:none;stroke:#a01127;stroke-miterlimit:10}.st2{fill:#1f3049}.st3{fill:#e6ca56}.st13{fill:#e09e9a}</style><g id="Layer_6"><circle cx="256" cy="256" r="256" style="fill:#5082a9"/><ellipse class="st13" cx="254.7" cy="282.2" rx="146" ry="110.7"/><path class="st13" d="m195.1 185-72.3-14.1c-4.1.3-7.3 3.7-7.1 7.5l14.2 59.8 65.2-53.2zM180.3 305.8c1 4.4-1.7 8.9-6.2 9.9l-69.1 5.6c-4.4 1-8.9-1.7-9.9-6.2l-10.9-47c-1-4.4 1.7-8.9 6.2-9.9l59.6-13.8c4.4-1 8.9 1.7 9.9 6.2l20.4 55.2z"/><circle class="st2" cx="164.7" cy="249.8" r="8.8"/><path class="st13" d="M307.7 402.7c0 5.2 3.7 9.3 8.2 9.3h31.8c4.6 0 9.4-2.7 11.8-9.3l29.4-74.6c0-5.2-3.7-9.3-8.2-9.3l-58.9 13.3c-4.6 0-8.2 4.2-8.2 9.3l-5.9 61.3zM135.8 401.5c0 5.2 3.7 9.5 8.2 9.5h31.8c4.6 0 9.4-2.9 11.8-9.5l29.4-74.7c0-5.2-3.7-9.4-8.2-9.4l-58.9 13.3c-4.6 0-8.2 4.3-8.2 9.4l-5.9 61.4zM366.7 221.7c6.1 4.8 13.3 8.3 21.3 6.7 8.2-1.7 15.4-6.7 20.9-12.8 4.2-4.7 7.5-10.8 6.9-17.2-.7-6.9-7-12.1-13.5-13.5-14-3-19.3 14-14.2 24.1 3.2 6.4 11.8 9.4 18.5 9.8 7.9.5 15.3-1.5 21-7.1 3.8-3.7-2-9.5-5.8-5.8-6.4 6.2-16.3 6-23.8 1.9-6.3-3.5-5.1-16.5 3.4-14.7 11.3 2.4 4.3 14.1-.4 18.9-8.1 8.3-18.9 11.5-28.5 3.9-4.1-3.3-10 2.5-5.8 5.8z"/><path d="M299.9 302.6c0-10.7-6.1-19.4-20.6-23 13.2-4 17.8-12.4 17.8-21.4 0-12.1-8-20.2-22-23.3V217h-13v16.5s0-.5-.1-.5h-9v-16h-13v16h-25v15h13v66h-13v14h25v20h13v-20h9v20h13v-20.8c16-2.8 24.9-11.9 24.9-24.6zm-20.6-42.3c0 8.4-6.8 12.7-18.7 12.7H245v-25h16.9c10.6 0 17.4 4 17.4 12.3zM263.5 314H245v-27h18c12.6 0 19 5.4 19 13.7 0 8.7-7 13.3-18.5 13.3z" style="fill:#f5f5f5"/><g><path class="st2" d="M217 206c27.6-11.2 60.5-11.1 88 .5 4.4 1.8 9.5-2 10.7-6.1 1.4-5.1-1.7-9-6.1-10.8-29.9-12.6-67.2-12.7-97.2-.5-4.4 1.8-7.4 5.8-6.1 10.8 1.1 4.2 6.3 7.9 10.7 6.1z"/></g><g><defs><path id="SVGID_1_" d="M294.9 202.4c14.3-10.3 23.7-27 24-45.9.5-31.8-24.9-58-56.8-58.5-31.8-.5-58 24.9-58.5 56.8-.3 19.4 9.1 36.8 23.7 47.4 21.8-5.7 45.9-5.6 67.6.2z"/></defs><clipPath id="SVGID_2_"><use xlink:href="#SVGID_1_" style="overflow:visible"/></clipPath><g style="clip-path:url(#SVGID_2_)"><path class="st3" d="M318.9 156.5c-.5 31.8-26.7 57.2-58.5 56.8-31.8-.5-57.2-26.7-56.8-58.5.5-31.8 26.7-57.2 58.5-56.8 31.9.5 57.3 26.7 56.8 58.5z"/><path d="M308.3 156.4c-.4 26-21.8 46.7-47.8 46.4-26-.4-46.7-21.8-46.4-47.8.4-26 21.8-46.8 47.8-46.4 26.1.4 46.8 21.8 46.4 47.8z" style="fill:#d5872a"/><path class="st3" d="M238 173h7v-37h-7v-7h25.7c11.5 0 19.4 4.7 19.4 13.4 0 5-2.6 9.5-9.8 11.7 7.9 2 11.4 6.9 11.4 12.8 0 8.5-6.9 14.2-19.8 14.2H238V173zm25.1-23c6.5 0 10.2-2.5 10.2-7.1 0-4.5-3.8-6.9-9.6-6.9H255v14h8.1zm1.5 23c6.3 0 10.2-2.6 10.2-7.4 0-4.5-3.5-7.6-10.4-7.6H255v15h9.6z"/><path class="st3" d="M251 120h8v14h-8zM264 120h7v14h-7z"/><g><path class="st3" d="M251 177h8v15h-8zM264 177h7v15h-7z"/></g></g></g></g></svg>